# xmcd
#
# Track frame offsets: 
#        150
#        14812
#        30331
#        56802
#        72606
#        89974
#        105488
#        119998
#        134831
#        155493
#        174576
#        190785
#        204552
#        220469
#        235194
#        253483
#
# Disc length: 3569 seconds
#
# Revision: 2
# Processed by: cddbd v1.5.2PL0 Copyright (c) Steve Scherf et al.
# Submitted via: ExactAudioCopy v1.0b3
#
DISCID=080def10
DTITLE=Die Großen 3 der Volksmusik - Weihnachten mit den Großen 3 der 
DTITLE=Volksmusik
DYEAR=2001
DGENRE=Country
TTITLE0=Dir grossen3 - Weihnacht ist in meinem Herzen
TTITLE1=Nockalm Quintett - Happystar of Jerusalem
TTITLE2=Klostertaler - Weihnachtsmedley
TTITLE3=Kastelruther Spatzen - Im Auftrag des Himmels
TTITLE4=Nockalm Quintett - Von Weihnacht zu Weihnacht
TTITLE5=Klostertaler - Die Blüten uns`rer Zeit
TTITLE6=Kastelruther Spatzen - Maria und Josef in unserer Zeit
TTITLE7=Nockalm Quintett - Es wird still
TTITLE8=Klostertaler -  Wenn Liebe in den Herzen Lebt
TTITLE9=Kastelruther Spatzen - and die Regensburger Domspatzen
TTITLE10=Nockalm Quintett -  Stern der Weihnacht
TTITLE11=Klostertaler -  Das Herz der Erde
TTITLE12=Kastelruther Spatzen - Damals am heiligen Abend
TTITLE13=Nockalm Quintett -  Weihnachtswunder
TTITLE14=Klostertaler - Zu weihnachten bin ich Daheim
TTITLE15=Kastelruther Spatzen - Stille Nacht Heilige Nacht
EXTD=ID3G: 2
EXTT0=
EXTT1=
EXTT2=
EXTT3=
EXTT4=
EXTT5=
EXTT6=
EXTT7=
EXTT8=
EXTT9=
EXTT10=
EXTT11=
EXTT12=
EXTT13=
EXTT14=
EXTT15=
PLAYORDER=
